<svg 
          width="19.262056350708008" 
          height="4.748916149139404" fill="none" 
          xmlns="http://www.w3.org/2000/svg">
          <path d="M 18.945753827471023 3.2276670269453303 C 16.384493862545032 1.14887350775042 13.071926704046398 2.3391590215458606e-15 9.639363987687295 0 C 6.206801271328192 2.9239487769323258e-15 2.894233551977662 1.14887350775042 0.3329735870516698 3.2276670269453303 C 0.23671389629645614 3.3024633921989284 0.15785940291924092 3.3940064973270476 0.1010438976585172 3.4969174709096675 C 0.0442283923977935 3.5998284444922874 0.010597935492641947 3.7120313956175552 0.002128430762255361 3.8269329607780835 C -0.006341073968131226 3.941834525938612 0.010521336234630238 4.057117254045121 0.0517248251519785 4.166006726738098 C 0.09292831406932676 4.274896199431074 0.15764167913385826 4.3751956426929395 0.24206242806532782 4.461012287189964 C 0.3264831769967974 4.546828931686988 0.4289084259161674 4.616431439169312 0.5433194520004352 4.665729578025371 C 0.657730478084703 4.715027716881431 0.7818194243086712 4.743027277895842 0.9082949032149579 4.748082908298315 C 1.0347703821212444 4.753138538700788 1.1610810892112533 4.735148278629667 1.2798049261785174 4.695169289279676 C 1.3985287631457815 4.655190299929685 1.507270795315125 4.594028790600493 1.5996414203675426 4.515279059194697 C 3.812524346001672 2.720019753860954 6.674036115691658 1.727905095091926 9.639137576090299 1.727905095091926 C 12.60423903648894 1.7279050950919248 15.465750115899667 2.720019753860954 17.678633041533796 4.515279059194697 C 17.866460185066586 4.668073685993009 18.113320291266383 4.746737663094318 18.364907300405363 4.733965535404415 C 18.616494309544343 4.7211934077145115 18.8521994597741 4.618031484689619 19.020170073281122 4.447174335678342 C 19.188140686788145 4.2763171866670655 19.274618450385205 4.051760644110929 19.260577772534944 3.8229042695675126 C 19.246537094684683 3.5940478950240964 19.133128126238592 3.3796384791363394 18.94530100427703 3.226843832715739 L 18.945753827471023 3.2276670269453303 Z" fill="rgb(0,0,0)"/>
        </svg>