<svg 
          width="8.82231330871582" 
          height="2.93133807182312" fill="none" 
          xmlns="http://www.w3.org/2000/svg">
          <path d="M 8.503359432003531 1.413685043611204 C 7.377149352678942 0.5030281748761062 5.922706490537436 0 4.415868155305828 0 C 2.909029820074221 0 1.4545854263756512 0.5030281748761062 0.32837534705106247 1.413685043611204 C 0.2332114342099803 1.4885910417674346 0.15535646204285372 1.5799500828221147 0.09933241209676397 1.6824557556818394 C 0.04330836215067421 1.784961428541564 0.010231426067099616 1.8965714406043195 0.002023062170543006 2.0108028725606037 C -0.006185301726013604 2.125034304516888 0.010638316692338272 2.2396105491225353 0.05151677458248983 2.347877982976815 C 0.09239523247264139 2.4561454168310948 0.1565138014724637 2.5559453920719233 0.24014868663699138 2.6414826622709064 C 0.32378357180151907 2.7270199324698896 0.42526788089157636 2.796590076290128 0.5387075945158202 2.846150971158023 C 0.652147308140064 2.895711866025918 0.7752817995393964 2.9242762717270923 0.9009591933714459 2.9301858510935364 C 1.0266365872034955 2.9360954304599804 1.152352485674363 2.9192325748580035 1.270805287560425 2.880575684661405 C 1.389258089446487 2.841918794464806 1.4980872338903357 2.7822380996507143 1.5909719848961832 2.705001106174582 C 2.3693460412866574 2.0757182663651736 3.3745072863622663 1.7281238830184271 4.415868155305828 1.7281238830184247 C 5.45722902424939 1.7281238830184247 6.462388716196711 2.0757182663651736 7.240762772587185 2.705001106174582 C 7.429129816947634 2.8573046032141796 7.676293531067802 2.935302544098999 7.927880532982251 2.9218358613049773 C 8.1794675348967 2.9083691785109558 8.414869063348817 2.8045412234603373 8.58229976581115 2.633192952149944 C 8.749730468273484 2.4618446808395507 8.835475355065364 2.237011959760663 8.820671134405499 2.0081555904919792 C 8.805866913745634 1.7792992212232956 8.691726454792754 1.5651659939756752 8.503359432003531 1.4128624773137899 L 8.503359432003531 1.413685043611204 Z" fill="rgb(0,0,0)"/>
        </svg>