<svg 
          width="14.366585731506348" 
          height="3.9736287593841553" fill="none" 
          xmlns="http://www.w3.org/2000/svg">
          <path d="M 7.183292865753174 0.000008673347503274662 C 4.63264930307068 -0.003190369342608062 2.176694557513523 0.8786604478054498 0.31614316669236286 2.4657716562686796 C 0.22194208577641136 2.542529458347937 0.1455372233106991 2.6356243845728793 0.09140930046780782 2.739596597212737 C 0.03728137762491655 2.843568809852595 0.006519949539470848 2.956325645904359 0.0009288801712232524 3.071254698618322 C -0.004662189197024343 3.186183751332285 0.015029492981295467 3.3009710722634713 0.05884951911253334 3.4088861383024303 C 0.10266954524377121 3.516801204341389 0.16973587875959054 3.6156721422159532 0.2561151036378699 3.6996991139138764 C 0.34249432851614925 3.7837260856117996 0.4464477284280564 3.8512175959873303 0.5618794905693749 3.8982176398031556 C 0.6773112527106935 3.945217683618981 0.8018976059563281 3.9707799990541846 0.9283324730720153 3.973403966458295 C 1.0547673401877025 3.9760279338624054 1.180505704767104 3.9556609397506093 1.298173734354547 3.913498535456066 C 1.41584176394199 3.8713361311615224 1.5230710134029752 3.808227131159327 1.61357310359724 3.7278710675777273 C 3.124287352869815 2.4430820127603825 5.115171747088378 1.7283610678584345 7.183292865753174 1.7283610678584356 C 9.251413984417969 1.7283610678584345 11.242298206066724 2.4430820127603825 12.753012455339299 3.7278710675777273 C 12.843514545533564 3.808227131159327 12.950744053849261 3.8713361311615224 13.068412083436705 3.913498535456066 C 13.186080113024149 3.9556609397506093 13.311817787324312 3.9760279338624054 13.43825265444 3.973403966458295 C 13.564687521555687 3.9707799990541846 13.68927495336263 3.945217683618981 13.804706715503949 3.8982176398031556 C 13.920138477645267 3.8512175959873303 14.024090820567093 3.7837260856117996 14.110470045445371 3.6996991139138764 C 14.19684927032365 3.6156721422159532 14.263916639258326 3.516801204341389 14.307736665389564 3.4088861383024303 C 14.351556691520802 3.3009710722634713 14.371247685020872 3.186183751332285 14.365656615652625 3.071254698618322 C 14.360065546284378 2.956325645904359 14.329304116597942 2.843568809852595 14.275176193755051 2.739596597212737 C 14.22104827091216 2.6356243845728793 14.144643063306829 2.542529458347937 14.050441982390877 2.4657716562686796 C 12.189890591569718 0.8786604478054498 9.733936428435667 -0.003190369342608062 7.183292865753174 0.000008673347503274662 Z" fill="rgb(0,0,0)"/>
        </svg>